<svg width="12" height="12" viewBox="0 0 12 12" fill="#747988" xmlns="http://www.w3.org/2000/svg">
<g clip-path="url(#clip0_1_7040)">
<path d="M6.8417 5.99996L10.4191 2.42243C10.6519 2.18973 10.6519 1.81348 10.4191 1.58078C10.1864 1.34807 9.81017 1.34807 9.57747 1.58078L5.99994 5.15831L2.42252 1.58078C2.1897 1.34807 1.81356 1.34807 1.58086 1.58078C1.34805 1.81348 1.34805 2.18973 1.58086 2.42243L5.15828 5.99996L1.58086 9.57749C1.34805 9.81019 1.34805 10.1864 1.58086 10.4191C1.69683 10.5352 1.84931 10.5935 2.00169 10.5935C2.15406 10.5935 2.30644 10.5352 2.42252 10.4191L5.99994 6.84162L9.57747 10.4191C9.69355 10.5352 9.84593 10.5935 9.9983 10.5935C10.1507 10.5935 10.303 10.5352 10.4191 10.4191C10.6519 10.1864 10.6519 9.81019 10.4191 9.57749L6.8417 5.99996Z" fill="#747988" stroke="#747988"/>
</g>
<defs>
<clipPath id="clip0_1_7040">
<rect width="10.5" height="10.5" fill="white" transform="translate(0.75 0.75)"/>
</clipPath>
</defs>
</svg>
