<svg width="32" height="32" viewBox="0 0 32 32" fill="none" xmlns="http://www.w3.org/2000/svg">
<rect width="32" height="32" rx="4" fill="#F8F8F9"/>
<path d="M8.50049 16C8.50049 15.6936 8.61692 15.3872 8.84397 15.1529L13.0124 10.8514C13.4665 10.3829 14.2058 10.3829 14.6599 10.8514C15.114 11.32 15.114 12.083 14.6599 12.5516L11.3182 16L14.6599 19.4484C15.114 19.917 15.114 20.68 14.6599 21.1486C14.2058 21.6171 13.4665 21.6171 13.0124 21.1486L8.84397 16.8471C8.61692 16.6128 8.50049 16.3064 8.50049 16Z" fill="#454957"/>
<path d="M16.5005 16C16.5005 15.6936 16.6169 15.3872 16.844 15.1529L21.0124 10.8514C21.4665 10.3829 22.2058 10.3829 22.6599 10.8514C23.114 11.32 23.114 12.083 22.6599 12.5516L19.3182 16L22.6599 19.4484C23.114 19.917 23.114 20.68 22.6599 21.1486C22.2058 21.6171 21.4665 21.6171 21.0124 21.1486L16.844 16.8471C16.6169 16.6128 16.5005 16.3064 16.5005 16Z" fill="#454957"/>
</svg>
