<svg width="18" height="4" viewBox="0 0 18 4" fill="#000000" xmlns="http://www.w3.org/2000/svg">
<path fill-rule="evenodd" clip-rule="evenodd" d="M15.3636 3.69697C14.4264 3.69697 13.6667 2.93721 13.6667 2C13.6667 1.06279 14.4264 0.303032 15.3636 0.303032C16.3008 0.303032 17.0606 1.06279 17.0606 2C17.0606 2.93721 16.3008 3.69697 15.3636 3.69697ZM9 3.69697C8.06279 3.69697 7.30303 2.93721 7.30303 2C7.30303 1.06279 8.06279 0.303032 9 0.303032C9.93721 0.303032 10.697 1.06279 10.697 2C10.697 2.93721 9.93721 3.69697 9 3.69697ZM0.939396 2C0.939396 2.93721 1.69916 3.69697 2.63637 3.69697C3.57358 3.69697 4.33334 2.93721 4.33334 2C4.33334 1.06279 3.57358 0.303031 2.63637 0.303031C1.69916 0.303031 0.939396 1.06279 0.939396 2Z" fill="#454957"/>
</svg>
