<svg width="12" height="24" viewBox="0 0 12 24" fill="none" xmlns="http://www.w3.org/2000/svg">
<path fill-rule="evenodd" clip-rule="evenodd" d="M6 0C9.31327 0 12 2.68673 12 6C12 8.97253 9.83738 11.4403 6.99998 11.9166V23C6.99998 23.5523 6.55228 24 6 24C5.44772 24 5.00002 23.5523 5.00002 23V11.9166C2.16263 11.4403 0 8.97253 0 6C0 2.68673 2.68673 0 6 0ZM2.00002 6C2.00002 8.2087 3.7913 9.99998 6 9.99998C8.2087 9.99998 9.99998 8.2087 9.99998 6C9.99998 3.7913 8.2087 2.00002 6 2.00002C3.7913 2.00002 2.00002 3.7913 2.00002 6ZM4.00017 4.99997C4.00017 4.44797 4.44816 3.99999 5.00016 3.99999C5.55216 3.99999 6.00014 4.44802 6.00014 5.00002C6.00014 5.55202 5.55216 6.00001 5.00016 6.00001C4.44816 6.00001 4.00017 5.55197 4.00017 4.99997Z" fill="#454957"/>
</svg>
